<svg width="48" height="48" viewBox="0 0 48 48" fill="none" xmlns="http://www.w3.org/2000/svg">
<rect width="48" height="48" rx="24" fill="white"/>
<path fill-rule="evenodd" clip-rule="evenodd" d="M25.3335 32.5639C25.3335 32.9273 25.7097 33.1718 26.0493 33.0423C27.577 32.4597 31.4637 31.1653 36.8696 30.7036C37.1302 30.6814 37.3335 30.468 37.3335 30.2064C37.3335 27.8909 37.3335 17.5429 37.3335 15.1578C37.3335 14.8817 37.1133 14.6682 36.8374 14.6797C35.313 14.743 30.5053 15.1073 25.632 17.2025C25.4505 17.2806 25.3335 17.4509 25.3335 17.6485C25.3335 19.5679 25.3335 29.6789 25.3335 32.5639Z" fill="#5E6488"/>
<path fill-rule="evenodd" clip-rule="evenodd" d="M22.6665 32.5639C22.6665 32.9273 22.2903 33.1718 21.9507 33.0423C20.423 32.4597 16.5363 31.1653 11.1304 30.7036C10.8698 30.6814 10.6665 30.468 10.6665 30.2064C10.6665 27.8909 10.6665 17.5429 10.6665 15.1578C10.6665 14.8817 10.8867 14.6682 11.1626 14.6797C12.687 14.743 17.4947 15.1073 22.368 17.2025C22.5495 17.2806 22.6665 17.4509 22.6665 17.6485C22.6665 19.5679 22.6665 29.6789 22.6665 32.5639Z" fill="#FADB00"/>
</svg>
