<svg width="48" height="48" viewBox="0 0 48 48" fill="none" xmlns="http://www.w3.org/2000/svg">
<rect width="48" height="48" rx="24" fill="white"/>
<rect x="13.3335" y="14.6667" width="21.3333" height="4" rx="1.5" fill="#F7DC00"/>
<path fill-rule="evenodd" clip-rule="evenodd" d="M14.8335 21.3333C14.0051 21.3333 13.3335 22.0049 13.3335 22.8333V23.8333C13.3335 24.6617 14.0051 25.3333 14.8335 25.3333H33.1668C33.9953 25.3333 34.6668 24.6617 34.6668 23.8333V22.8333C34.6668 22.0049 33.9953 21.3333 33.1668 21.3333H14.8335ZM14.8335 28C14.0051 28 13.3335 28.6716 13.3335 29.5V30.5C13.3335 31.3284 14.0051 32 14.8335 32H33.1668C33.9953 32 34.6668 31.3284 34.6668 30.5V29.5C34.6668 28.6716 33.9953 28 33.1668 28H14.8335Z" fill="#5E6488"/>
</svg>
