<svg width="48" height="48" viewBox="0 0 48 48" fill="none" xmlns="http://www.w3.org/2000/svg">
<rect width="48" height="48" rx="24" fill="white"/>
<path d="M23.9998 22.6667C21.0543 22.6667 18.6665 20.2789 18.6665 17.3333C18.6665 14.3878 21.0543 12 23.9998 12C26.9454 12 29.3332 14.3878 29.3332 17.3333C29.3332 20.2789 26.9454 22.6667 23.9998 22.6667Z" fill="#F7DC00"/>
<path d="M12.0009 34.9319C12.5177 28.5684 17.6825 25.333 23.9778 25.333C30.3616 25.333 35.6065 28.3906 35.9972 34.933C36.0128 35.1936 35.9972 35.9997 34.9956 35.9997C30.0548 35.9997 22.713 35.9997 12.97 35.9997C12.6356 35.9997 11.9727 35.2786 12.0009 34.9319Z" fill="#5E6488"/>
</svg>
