<svg width="55" height="55" viewBox="0 0 55 55" fill="none" xmlns="http://www.w3.org/2000/svg">
<path d="M27.5 0C12.3359 0 0 12.3359 0 27.5C0 42.6641 12.3359 55 27.5 55C42.6641 55 55 42.6641 55 27.5C55 12.3359 42.6641 0 27.5 0Z" fill="#FADB00"/>
<path d="M39.5313 29.7911H29.7915V39.5308C29.7915 40.7959 28.7652 41.8223 27.5 41.8223C26.2349 41.8223 25.2085 40.7959 25.2085 39.5308V29.7911H15.4688C14.2036 29.7911 13.1772 28.7647 13.1772 27.4995C13.1772 26.2344 14.2036 25.208 15.4688 25.208H25.2085V15.4683C25.2085 14.2031 26.2349 13.1768 27.5 13.1768C28.7652 13.1768 29.7915 14.2031 29.7915 15.4683V25.208H39.5313C40.7964 25.208 41.8228 26.2344 41.8228 27.4995C41.8228 28.7647 40.7964 29.7911 39.5313 29.7911Z" fill="#FAFAFA"/>
</svg>
